<?xml version="1.0" encoding="UTF-8" standalone="no"?>
<!-- Created with Inkscape (http://www.inkscape.org/) -->

<svg
   width="775pt"
   height="510pt"
   viewBox="0 0 273.40278 179.91667"
   version="1.1"
   id="svg5"
   xml:space="preserve"
   inkscape:version="1.2.2 (b0a8486541, 2022-12-01)"
   sodipodi:docname="WESTPA10th.svg"
   inkscape:export-filename="WESTPA10th.png"
   inkscape:export-xdpi="600"
   inkscape:export-ydpi="600"
   xmlns:inkscape="http://www.inkscape.org/namespaces/inkscape"
   xmlns:sodipodi="http://sodipodi.sourceforge.net/DTD/sodipodi-0.dtd"
   xmlns="http://www.w3.org/2000/svg"
   xmlns:svg="http://www.w3.org/2000/svg"><sodipodi:namedview
     id="namedview7"
     pagecolor="#ffffff"
     bordercolor="#cccccc"
     borderopacity="1"
     inkscape:showpageshadow="0"
     inkscape:pageopacity="1"
     inkscape:pagecheckerboard="0"
     inkscape:deskcolor="#d1d1d1"
     inkscape:document-units="mm"
     showgrid="false"
     inkscape:zoom="0.52913967"
     inkscape:cx="264.58043"
     inkscape:cy="413.87938"
     inkscape:window-width="1920"
     inkscape:window-height="1025"
     inkscape:window-x="0"
     inkscape:window-y="0"
     inkscape:window-maximized="1"
     inkscape:current-layer="layer1" /><defs
     id="defs2"><rect
       x="-247.42992"
       y="592.06171"
       width="971.92627"
       height="413.21695"
       id="rect1367" /><rect
       x="-613.63019"
       y="551.08734"
       width="811.0954"
       height="218.00929"
       id="rect448" /><rect
       x="-384.80283"
       y="245.88335"
       width="1065.9204"
       height="586.73871"
       id="rect390" /></defs><g
     inkscape:label="Layer 1"
     inkscape:groupmode="layer"
     id="layer1"><text
       xml:space="preserve"
       transform="matrix(0.29541792,0,0,0.26458333,222.11109,-2.7285653)"
       id="text446"
       style="font-size:96px;font-family:'Liberation Sans';-inkscape-font-specification:'Liberation Sans';text-align:center;white-space:pre;shape-inside:url(#rect448);display:inline;fill:#000000;stroke-width:4;stroke-linecap:square" /><g
       aria-label="W ESTPA"
       transform="matrix(0.26458333,0,0,0.26458333,72.949119,17.259023)"
       id="text388"
       style="font-size:192px;font-family:'Liberation Sans';-inkscape-font-specification:'Liberation Sans';text-align:center;white-space:pre;shape-inside:url(#rect390);fill:#dea826;stroke-width:4;stroke-linecap:square"><path
         d="m -121.81934,418.82766 h -32.8125 l -17.90625,-76.40625 q -3.28125,-13.5 -5.53125,-28.21875 -2.25,12.28125 -3.65625,18.75 -1.40625,6.375 -19.96875,85.875 h -32.8125 l -34.03125,-132.09375 h 28.03125 l 19.125,85.3125 4.3125,20.625 q 2.625,-13.03125 5.0625,-24.84375 2.53125,-11.90625 18.75,-81.09375 h 30.9375 l 16.6875,70.3125 q 1.96875,7.875 6.65625,35.625 l 2.34375,-10.875 4.96875,-21.5625 15.9375,-73.5 h 28.031254 z"
         style="font-weight:bold;-inkscape-font-specification:'Liberation Sans Bold';fill:#2e4b9f;stroke:#2e4b9f"
         id="path1114" /><path
         d="M -47.991211,418.82766 V 286.73391 h 103.875 v 21.375 h -76.21875 v 33.1875 c 0,52.52994 0,-33.68407 0,21.375 v 34.78125 h 80.0625 v 21.375 z"
         style="font-weight:bold;-inkscape-font-specification:'Liberation Sans Bold';fill:#2e4b9f;stroke:#2e4b9f"
         id="path1116"
         sodipodi:nodetypes="ccccccccccc" /><path
         d="m 187.79004,380.76516 q 0,19.40625 -14.4375,29.71875 -14.34375,10.21875 -42.1875,10.21875 -25.40625,0 -39.843751,-9 -14.4375,-9 -18.5625,-27.28125 l 26.71875,-4.40625 q 2.718751,10.5 10.593751,15.28125 7.875,4.6875 21.84375,4.6875 28.96875,0 28.96875,-17.625 0,-5.625 -3.375,-9.28125 -3.28125,-3.65625 -9.375,-6.09375 -6,-2.4375 -23.15625,-5.90625 -14.8125,-3.46875 -20.625,-5.53125 -5.812501,-2.15625 -10.500001,-4.96875 -4.6875,-2.90625 -7.96875,-6.9375 -3.28125,-4.03125 -5.15625,-9.46875 -1.78125,-5.4375 -1.78125,-12.46875 0,-17.90625 13.40625,-27.375 13.500001,-9.5625 39.187501,-9.5625 24.5625,0 36.84375,7.6875 12.375,7.6875 15.9375,25.40625 l -26.8125,3.65625 q -2.0625,-8.53125 -8.4375,-12.84375 -6.28125,-4.3125 -18.09375,-4.3125 -25.125,0 -25.125,15.75 0,5.15625 2.625,8.4375 2.71875,3.28125 7.96875,5.625 5.25,2.25 21.28125,5.71875 19.03125,4.03125 27.1875,7.5 8.25,3.375 13.03125,7.96875 4.78125,4.5 7.3125,10.875 2.53125,6.28125 2.53125,14.53125 z"
         style="font-weight:bold;-inkscape-font-specification:'Liberation Sans Bold';fill:#2e4b9f;stroke:#2e4b9f"
         id="path1118" /><path
         d="M 267.75879,308.10891 V 418.82766 H 240.10254 V 308.10891 h -42.65625 v -21.375 h 113.0625 v 21.375 z"
         style="font-weight:bold;-inkscape-font-specification:'Liberation Sans Bold';fill:#2e4b9f;stroke:#2e4b9f"
         id="path1120" /><path
         d="m 434.07129,328.54641 q 0,12.75 -5.8125,22.78125 -5.8125,10.03125 -16.6875,15.5625 -10.78125,5.4375 -25.6875,5.4375 h -32.8125 v 46.5 H 325.41504 V 286.73391 h 59.34375 q 23.71875,0 36.46875,10.96875 12.84375,10.875 12.84375,30.84375 z m -27.84375,0.46875 q 0,-20.8125 -24.5625,-20.8125 h -28.59375 v 42.84375 h 29.34375 q 11.4375,0 17.625,-5.625 6.1875,-5.71875 6.1875,-16.40625 z"
         style="font-weight:bold;-inkscape-font-specification:'Liberation Sans Bold';stroke:#dea826"
         id="path1122" /><path
         d="m 532.60254,418.82766 -11.71875,-33.75 h -50.34375 l -11.71875,33.75 h -27.65625 l 48.1875,-132.09375 h 32.625 l 48,132.09375 z m -36.9375,-111.75 -0.5625,2.0625 q -0.9375,3.375 -2.25,7.6875 -1.3125,4.3125 -16.125,47.4375 h 37.96875 l -13.03125,-37.96875 -4.03125,-12.75 z"
         style="font-weight:bold;-inkscape-font-specification:'Liberation Sans Bold';stroke:#dea826"
         id="path1124" /></g><g
       id="g11217"
       transform="matrix(0.15364224,0,0,0.15364224,107.44903,111.1152)"><rect
         style="fill:#ff0000;fill-opacity:1;stroke:none;stroke-width:0.0891484;stroke-linecap:square;stroke-dasharray:none;stroke-opacity:1"
         id="rect11108"
         width="60"
         height="60"
         x="-175.48233"
         y="-166.2979"
         transform="rotate(-45)" /><circle
         style="fill:#ff0000;fill-opacity:1;stroke:none;stroke-width:0.0995307;stroke-linecap:square;stroke-dasharray:none;stroke-opacity:1"
         id="path11162"
         cx="-145.48233"
         cy="-166.23801"
         r="30"
         transform="rotate(-45)" /><circle
         style="fill:#ff0000;fill-opacity:1;stroke:none;stroke-width:0.0995307;stroke-linecap:square;stroke-dasharray:none;stroke-opacity:1"
         id="path11162-2"
         cx="-114.6322"
         cy="-136.2979"
         r="30"
         transform="rotate(-45)" /></g><g
       id="g986"
       transform="matrix(1.9204366,0,0,1.9204366,312.15947,-19.902931)"
       style="fill:#000000;fill-opacity:1"><path
         style="fill:#000000;fill-opacity:1;stroke-width:0.243264"
         d="m -42.598461,83.288667 c 0.242167,-0.267591 0.495037,-0.486529 0.561935,-0.486529 0.0669,0 -0.0765,0.218938 -0.318671,0.486529 -0.242167,0.26759 -0.495038,0.486528 -0.561935,0.486528 -0.0669,0 0.0765,-0.218938 0.318671,-0.486528 z m 4.941303,-1.382497 c 0.175605,-0.07027 0.385423,-0.06163 0.466257,0.01919 0.08083,0.08083 -0.06285,0.13833 -0.319284,0.127767 -0.283391,-0.01168 -0.341032,-0.06931 -0.146973,-0.14697 z m -97.668722,-1.779938 c 0,-0.869669 0.0442,-1.225443 0.0981,-0.790608 0.054,0.434835 0.054,1.146382 0,1.581217 -0.054,0.434835 -0.0981,0.07906 -0.0981,-0.790609 z m 102.336353,0.637946 c 0,-0.05051 0.191571,-0.242084 0.425713,-0.425712 0.385831,-0.302589 0.394435,-0.293985 0.09185,0.09185 -0.317793,0.405217 -0.517559,0.534081 -0.517559,0.333865 z M -133.37423,73.679732 c 8.7e-4,-1.070363 0.0437,-1.477979 0.095,-0.905812 0.0514,0.572167 0.0507,1.447918 -0.002,1.946114 -0.0523,0.498195 -0.0943,0.03006 -0.0934,-1.040302 z m 110.621004,-1.723121 c 0.01168,-0.283391 0.06932,-0.341032 0.146971,-0.146973 0.07027,0.175605 0.06163,0.385423 -0.01919,0.466257 -0.08083,0.08083 -0.13833,-0.06285 -0.127767,-0.319284 z m -2.596592,-4.054404 -0.463416,-0.547344 0.547345,0.463416 c 0.301039,0.254877 0.547344,0.501182 0.547344,0.547344 0,0.194672 -0.195777,0.05095 -0.631273,-0.463416 z M -135.07413,45.947615 c -7.3e-4,-1.204158 0.0404,-1.727439 0.0914,-1.162845 0.051,0.564592 0.0516,1.549812 0.001,2.189378 -0.0503,0.639564 -0.092,0.177624 -0.0928,-1.026533 z m 1.94977,-9.608936 c 0,-1.40485 0.0402,-1.979562 0.0893,-1.277137 0.0491,0.702426 0.0491,1.851849 0,2.554274 -0.0491,0.702426 -0.0893,0.127714 -0.0893,-1.277137 z m 100.719881,-6.628949 -0.463416,-0.547344 0.547345,0.463416 c 0.301039,0.254877 0.547344,0.501182 0.547344,0.547344 0,0.194672 -0.195776,0.05095 -0.631273,-0.463416 z m -2.075663,-2.311009 c -0.302589,-0.385832 -0.293985,-0.394436 0.09185,-0.09185 0.405218,0.317793 0.534082,0.517559 0.333866,0.517559 -0.05051,0 -0.242084,-0.191571 -0.425712,-0.425712 z"
         id="path1002" /><path
         style="fill:#000000;fill-opacity:1;stroke-width:0.243264"
         d="m -33.962583,79.077056 c 0,-0.04187 0.355774,-0.39764 0.790608,-0.790609 l 0.790609,-0.714489 -0.714489,0.790609 c -0.666004,0.736959 -0.866728,0.902425 -0.866728,0.714489 z m -99.410047,-9.167919 c 0,-1.13726 0.0419,-1.602503 0.0931,-1.033873 0.0512,0.56863 0.0512,1.499115 0,2.067745 -0.0512,0.568631 -0.0931,0.103388 -0.0931,-1.033872 z m -1.7015,-19.826031 c -7.3e-4,-1.204158 0.0404,-1.727439 0.0914,-1.162844 0.051,0.564591 0.0516,1.549811 0.001,2.189377 -0.0503,0.639564 -0.092,0.177624 -0.0927,-1.026533 z m 1.93763,-17.636654 c 0,-0.869669 0.0442,-1.225443 0.0981,-0.790608 0.054,0.434835 0.054,1.146382 0,1.581217 -0.054,0.434835 -0.0981,0.07906 -0.0981,-0.790609 z m 101.575528,-1.885297 c -0.302589,-0.385832 -0.293985,-0.394436 0.09185,-0.09185 0.234142,0.183628 0.425713,0.375199 0.425713,0.425713 0,0.200216 -0.199766,0.07135 -0.517559,-0.333866 z"
         id="path1000" /><path
         style="fill:#000000;fill-opacity:1;stroke-width:0.243264"
         d="m -43.449886,81.493971 c 0,-0.05051 0.191571,-0.242085 0.425712,-0.425713 0.385832,-0.302589 0.394436,-0.293984 0.09185,0.09185 -0.317793,0.405218 -0.517559,0.534082 -0.517559,0.333866 z M -133.37584,66.260174 c 0,-1.003465 0.0429,-1.413973 0.0954,-0.912241 0.0525,0.501733 0.0525,1.322749 0,1.824482 -0.0525,0.501732 -0.0954,0.09122 -0.0954,-0.912241 z m -1.70481,-12.528106 c 0.001,-0.936567 0.0451,-1.289898 0.0977,-0.785183 0.0527,0.504717 0.0518,1.270999 -0.002,1.702849 -0.0537,0.431852 -0.0968,0.0189 -0.0957,-0.917666 z m 1.95828,-25.421107 c 0,-1.538646 0.0395,-2.168092 0.0878,-1.398769 0.0483,0.769323 0.0483,2.028215 0,2.797538 -0.0483,0.769323 -0.0878,0.139877 -0.0878,-1.398769 z"
         id="path998" /><path
         style="fill:#000000;fill-opacity:1;stroke-width:0.243264"
         d="m -131.81559,82.378761 c 0.83622,-0.0475 2.20458,-0.0475 3.0408,0 0.83622,0.0475 0.15204,0.08637 -1.5204,0.08637 -1.67244,0 -2.35662,-0.03887 -1.5204,-0.08637 z m 58.608566,-0.0022 c 5.241513,-0.03659 13.889554,-0.03661 19.217869,-3.4e-5 5.328315,0.03657 1.039803,0.06651 -9.530025,0.06653 -10.569828,1.9e-5 -14.929357,-0.0299 -9.687844,-0.06649 z m 30.851827,-2.007075 c 0.242167,-0.267591 0.495038,-0.486529 0.561935,-0.486529 0.0669,0 -0.0765,0.218938 -0.318671,0.486529 -0.242167,0.26759 -0.495038,0.486528 -0.561935,0.486528 -0.0669,0 0.0765,-0.218938 0.318671,-0.486528 z M -133.37584,62.854475 c 0,-1.003464 0.0429,-1.413973 0.0954,-0.91224 0.0525,0.501732 0.0525,1.322749 0,1.824481 -0.0525,0.501732 -0.0954,0.09122 -0.0954,-0.912241 z m -1.70481,-5.959972 c 0.001,-0.936567 0.0451,-1.289899 0.0977,-0.785184 0.0527,0.504717 0.0518,1.270999 -0.002,1.702849 -0.0537,0.431853 -0.0968,0.0189 -0.0957,-0.917665 z m 1.9608,-34.30025 c 4.2e-4,-1.739339 0.0392,-2.418968 0.0861,-1.510284 0.0469,0.908682 0.0466,2.331777 -7.8e-4,3.162435 -0.0474,0.830654 -0.0858,0.08719 -0.0853,-1.652151 z m 13.30422,2.169106 c 0.0117,-0.28339 0.0693,-0.341032 0.14697,-0.146972 0.0703,0.175605 0.0616,0.38542 -0.0192,0.466257 -0.0808,0.08083 -0.13833,-0.06284 -0.12777,-0.319285 z m 57.938484,-0.526973 c 4.783181,-0.03688 12.610206,-0.03688 17.393387,0 4.783182,0.03688 0.86967,0.06706 -8.696693,0.06706 -9.566364,0 -13.479876,-0.03018 -8.696694,-0.06706 z m -57.855864,-4.682935 c 0,-2.609009 0.0358,-3.67633 0.0795,-2.371826 0.0437,1.304504 0.0437,3.439147 0,4.743651 -0.0437,1.304505 -0.0795,0.237183 -0.0795,-2.371825 z"
         id="path996" /><path
         style="fill:#000000;fill-opacity:1;stroke-width:0.243264"
         d="m -114.7871,84.079305 c 9.13153,-0.03532 24.074027,-0.03532 33.205556,0 9.131529,0.03532 1.660278,0.06422 -16.602779,0.06422 -18.263057,0 -25.734307,-0.0289 -16.602777,-0.06422 z m -1.45959,-1.702818 c 6.18803,-0.03615 16.313905,-0.03615 22.501938,0 6.188032,0.03615 1.125096,0.06574 -11.250968,0.06574 -12.37606,0 -17.439,-0.02958 -11.25097,-0.06574 z m -18.83039,-22.076286 c 8.7e-4,-1.070362 0.0436,-1.477978 0.095,-0.905811 0.0514,0.572167 0.0507,1.447918 -0.002,1.946114 -0.0523,0.498195 -0.0943,0.03006 -0.0934,-1.040303 z m 1.70285,-0.973056 c 8.7e-4,-1.070363 0.0437,-1.477979 0.095,-0.905811 0.0514,0.572167 0.0507,1.447918 -0.002,1.946113 -0.0523,0.498195 -0.0943,0.03006 -0.0934,-1.040302 z M -24.338009,41.032007 c -0.132015,-0.3467 -0.104074,-0.374642 0.136179,-0.136179 0.166252,0.165015 0.240994,0.361305 0.166096,0.436204 -0.0749,0.0749 -0.210922,-0.06011 -0.302275,-0.300025 z m -5.937203,-7.125969 c 0,-0.334489 0.05522,-0.471325 0.1227,-0.304081 0.06748,0.167244 0.06748,0.440917 0,0.608161 -0.06748,0.167244 -0.1227,0.03041 -0.1227,-0.30408 z m 1.702849,0 c 0,-0.334489 0.05522,-0.471325 0.1227,-0.304081 0.06748,0.167244 0.06748,0.440917 0,0.608161 -0.06748,0.167244 -0.1227,0.03041 -0.1227,-0.30408 z M -108.7055,25.939211 c 5.51906,-0.03646 14.550239,-0.03646 20.069295,0 5.519056,0.03646 1.003465,0.06629 -10.034647,0.06629 -11.038108,0 -15.553698,-0.02983 -10.034648,-0.06629 z m 2.79754,-1.702871 c 6.52252,-0.03602 17.195735,-0.03602 23.718256,0 6.52252,0.03603 1.185912,0.0655 -11.859129,0.0655 -13.045037,0 -18.381647,-0.02947 -11.859127,-0.0655 z m -12.1207,-5.169418 c 0,-2.876599 0.0352,-4.053389 0.0782,-2.61509 0.043,1.4383 0.043,3.791881 0,5.23018 -0.043,1.4383 -0.0782,0.261509 -0.0782,-2.61509 z m -16.80677,0.486529 c 0,-1.003465 0.0429,-1.413973 0.0954,-0.912241 0.0525,0.501732 0.0525,1.322749 0,1.824481 -0.0525,0.501733 -0.0954,0.09122 -0.0954,-0.91224 z"
         id="path994" /><path
         style="fill:#000000;fill-opacity:1;stroke-width:0.243264"
         d="m -132.78865,84.090045 c 0.30104,-0.05799 0.79365,-0.05799 1.09469,0 0.30104,0.05798 0.0547,0.105423 -0.54735,0.105423 -0.60208,0 -0.84838,-0.04744 -0.54734,-0.105423 z m 72.874074,-0.01056 c 2.919099,-0.03884 7.626261,-0.03879 10.460359,1.05e-4 2.834098,0.03889 0.445745,0.07066 -5.307453,0.0706 -5.753197,-5.6e-5 -8.072006,-0.03187 -5.152906,-0.07071 z M -135.07708,63.949164 c 8.7e-4,-1.070362 0.0436,-1.477978 0.095,-0.905811 0.0514,0.572167 0.0507,1.447918 -0.002,1.946113 -0.0523,0.498196 -0.0943,0.03006 -0.0934,-1.040302 z m 1.69928,-8.027718 c 0.001,-0.936567 0.0451,-1.289898 0.0977,-0.785184 0.0527,0.504718 0.0518,1.271 -0.002,1.70285 -0.0537,0.431852 -0.0968,0.0189 -0.0957,-0.917666 z m -1.44567,-31.745976 c 0,-1.672441 0.0389,-2.356622 0.0864,-1.520401 0.0475,0.836221 0.0475,2.204582 0,3.040802 -0.0475,0.836221 -0.0864,0.15204 -0.0864,-1.520401 z m 66.743087,1.763731 c 5.920442,-0.03627 15.608437,-0.03627 21.528879,0 5.920442,0.03627 1.076444,0.06594 -10.764439,0.06594 -11.840884,0 -16.684881,-0.02967 -10.76444,-0.06594 z"
         id="path992" /><path
         style="fill:#000000;fill-opacity:1;stroke-width:0.243264"
         d="m -32.01647,79.547857 c 0,-0.05051 0.191571,-0.242084 0.425712,-0.425712 0.385832,-0.302589 0.394436,-0.293985 0.09185,0.09185 -0.317793,0.405217 -0.517559,0.534081 -0.517559,0.333865 z M -135.07869,67.476495 c 0,-1.003465 0.0429,-1.413973 0.0954,-0.912241 0.0525,0.501733 0.0525,1.322749 0,1.824482 -0.0525,0.501732 -0.0954,0.09122 -0.0954,-0.912241 z m 1.70285,-14.839115 c 0,-1.003465 0.0429,-1.413973 0.0954,-0.912241 0.0525,0.501732 0.0525,1.322749 0,1.824481 -0.0525,0.501733 -0.0954,0.09122 -0.0954,-0.91224 z m -1.44763,-22.623569 c 0,-1.672442 0.0389,-2.356622 0.0864,-1.520402 0.0475,0.836221 0.0475,2.204582 0,3.040803 -0.0475,0.83622 -0.0864,0.15204 -0.0864,-1.520401 z m 1.7875,-12.43666 c 0.16501,-0.166252 0.36131,-0.240995 0.4362,-0.166096 0.0749,0.0749 -0.0601,0.210922 -0.30002,0.302275 -0.3467,0.132014 -0.37464,0.104073 -0.13618,-0.136179 z"
         id="path990" /><path
         style="fill:#000000;fill-opacity:1;stroke:#000000;stroke-width:0.659746;stroke-dasharray:none;stroke-opacity:1"
         d="m -134.13172,83.855645 c -0.17006,-0.06842 -0.47072,-0.436749 -0.66813,-0.818501 -0.31484,-0.608837 -0.32811,-4.691158 -0.108,-33.234658 0.23214,-30.102026 0.282,-32.574884 0.66541,-32.998548 0.64602,-0.713849 0.96396,-0.824697 4.6986,-1.63817 2.97707,-0.64846 3.93545,-0.980518 6.35496,-2.201828 3.01522,-1.522015 3.99121,-1.726043 4.6698,-0.976211 0.37281,0.411948 0.41568,1.1103 0.39577,6.4465 l -0.0223,5.984505 h 41.449913 41.449913 l 0.945692,0.751037 c 0.520128,0.41307 1.848914,1.754064 2.952859,2.979986 2.376531,2.639122 2.865151,3.766847 2.672418,6.167881 -0.161165,2.007788 0.202084,2.467609 3.1967,4.046539 2.328413,1.227672 2.948299,1.82299 2.950006,2.833099 0.0015,0.836194 -2.201156,4.022281 -5.148822,7.447934 l -2.428416,2.822203 0.625665,1.321425 c 0.344117,0.726784 0.625666,1.492217 0.625666,1.700962 0,0.391534 -1.543786,3.338604 -2.087973,3.98592 -0.16872,0.200693 -0.375364,0.639921 -0.459209,0.976064 -0.12956,0.519405 -0.04066,0.653361 0.592134,0.892215 0.807625,0.304841 1.696687,1.874146 1.706442,3.012073 0.0035,0.4107 0.261837,0.812862 0.7575,1.179322 0.413686,0.305852 0.898076,0.901151 1.076422,1.322886 0.178347,0.421735 0.790215,1.204666 1.359706,1.739847 1.37686,1.29391 3.136582,3.706278 3.136582,4.299877 0,0.923847 -0.524506,1.414014 -3.954665,3.695747 -1.90569,1.267662 -4.230838,3.022847 -5.166994,3.900413 -2.038826,1.91122 -3.08819,2.244248 -6.791787,2.155447 l -2.412283,-0.05784 -1.282932,1.213346 -1.282933,1.213343 -45.079249,-0.01922 C -113.53684,83.98868 -133.96164,83.92405 -134.1317,83.855632 Z m 91.210073,-2.633663 1.244271,-1.33689 2.336996,0.151824 c 3.595303,0.233567 4.658163,-0.07587 6.665715,-1.940643 0.908227,-0.843633 3.122896,-2.510883 4.921487,-3.705001 1.798588,-1.194121 3.271903,-2.323526 3.274029,-2.509796 0.0043,-0.375001 -1.936081,-2.747897 -2.9633,-3.623857 -0.360888,-0.307747 -0.848357,-0.995167 -1.083268,-1.5276 -0.315839,-0.71587 -0.620202,-1.017956 -1.168322,-1.159587 -0.686161,-0.177298 -0.751952,-0.290238 -0.885771,-1.520566 -0.07951,-0.730973 -0.279333,-1.580869 -0.444057,-1.888659 -0.264054,-0.493389 -0.41657,-0.53984 -1.288711,-0.392493 l -0.989212,0.167128 0.174758,-1.544667 c 0.140646,-1.243151 0.408548,-1.931715 1.372453,-3.527511 0.658733,-1.090563 1.197694,-2.162849 1.197694,-2.382858 0,-0.220008 -0.273672,-0.940082 -0.60816,-1.600162 -0.74614,-1.472434 -0.752086,-1.715178 -0.06082,-2.483141 2.176971,-2.418501 4.616202,-5.431087 6.140092,-7.583355 1.375469,-1.94264 1.452022,-1.77261 -1.457257,-3.236696 -1.989765,-1.001341 -2.902521,-1.788543 -3.563008,-3.072893 -0.411114,-0.799437 -0.43762,-1.050089 -0.190293,-1.799498 0.515678,-1.56252 -0.02673,-3.106966 -1.781387,-5.072265 -0.828268,-0.9277 -1.998987,-2.151665 -2.601596,-2.719915 l -1.09565,-1.033185 -41.847489,-0.0615 -41.847487,-0.06151 -0.0649,-6.385684 c -0.0357,-3.512127 -0.12642,-6.385685 -0.20166,-6.385685 -0.0752,0 -1.41441,0.652561 -2.97594,1.450134 -2.47954,1.266458 -3.30134,1.54906 -6.48811,2.231151 -2.00693,0.429561 -3.71972,0.844321 -3.80621,0.921692 -0.0865,0.07737 -0.23621,14.727403 -0.33273,32.555627 l -0.17549,32.414952 h 44.674501 44.674506 z"
         id="path988" /></g><text
       xml:space="preserve"
       transform="matrix(0.26458333,0,0,0.26458333,96.412736,-12.415511)"
       id="text1365"
       style="font-style:normal;font-variant:normal;font-weight:normal;font-stretch:normal;font-size:112px;font-family:sans-serif;-inkscape-font-specification:sans-serif;text-align:center;white-space:pre;shape-inside:url(#rect1367);display:inline;fill:#4975b8;stroke-width:16.1272;stroke-linecap:square"><tspan
         x="-188.26243"
         y="693.96852"
         id="tspan1916"><tspan
           style="fill:#000006"
           id="tspan1910">10</tspan><tspan
           style="font-size:65%;baseline-shift:super"
           id="tspan1912">th</tspan><tspan
           style="fill:#000006"
           id="tspan1914"> Anniversary</tspan></tspan></text></g></svg>
